#!OML:ASF F:\VICON\USERDATA\INSTALL\rory3\rory3.ASF
:FULLY-SPECIFIED
:DEGREES
19
root -0.5327029999999997 18.0353 -7.528570000000024 0.015910000000002533 9.105430000000004 -2.34103
lfemur -26.98709999999999 -3.2165599999999976 -22.1743
ltibia 31.46360000000003
lfoot -1.731989999999993 -16.8158
ltoes -2.808210000000005
rfemur 0.2259520000000279 -0.27852499999999836 30.3743
rtibia 87.19420000000001
rfoot 29.305699999999955 -15.083100000000002
rtoes 34.82090000000005
lowerback 16.564 1.2182700000000009 3.587340000000002
upperback 0.12753100000000162 2.364360000000001 0.6051079999999993
thorax -9.05722 0.9896869999999984 -1.947569999999994
lowerneck -20.6835 -6.260549999999998 -1.6068599999999984
upperneck 14.037799999999999 -8.510310000000004 2.5321299999999995
head 7.891049999999999 -3.870289999999997 0.02058379999999982
lclavicle 2.2164499999999954e-14 -1.1330700000000006e-14
lhumerus -62.976600000000026 -8.564889999999993 96.7716
lradius 111.431
lwrist 31.984399999999997
lhand -33.7647 0.8050819999999987
lfingers nan
lthumb -6.9524500000000025 30.6709
rclavicle 2.2164499999999954e-14 -1.1330700000000006e-14
rhumerus -48.7076 16.21559999999999 -105.384
rradius 116.98799999999999
rwrist -22.927899999999987
rhand -17.0737 34.9831
rfingers nan
rthumb 9.16427 5.202219999999999
20
root -0.5440620000000005 17.6805 -6.033020000000033 0.1551200000000028 9.184540000000009 -2.250610000000001
lfemur -26.7234 -3.337930000000003 -22.2896
ltibia 41.531299999999995
lfoot -12.761799999999974 -13.035699999999999
ltoes -1.2491200000000005
rfemur -7.2384699999999835 -3.272849999999994 27.5137
rtibia 98.63919999999996
rfoot 25.727200000000035 -11.902600000000005
rtoes 32.57429999999996
lowerback 17.2592 0.8799319999999995 2.923540000000002
upperback 0.2546389999999984 1.7979099999999986 0.465028
thorax -9.35543 0.7393079999999999 -1.6050399999999967
lowerneck -21.727900000000005 -6.082570000000001 -1.6722399999999993
upperneck 12.9118 -8.339180000000006 3.3702299999999994
head 7.728020000000002 -3.7107600000000005 0.3184770000000005
lclavicle 3.798029999999999e-14 5.665360000000007e-15
lhumerus -57.35029999999999 -11.481600000000004 97.4999
lradius 113.058
lwrist 30.1822
lhand -34.0474 -0.03582399999999955
lfingers nan
lthumb -7.225270000000004 29.8208
rclavicle 3.798029999999999e-14 5.665360000000007e-15
rhumerus -49.1999 14.6971 -105.533
rradius 112.153
rwrist -22.074000000000012
rhand -19.8963 31.308999999999994
rfingers nan
rthumb 6.439930000000001 1.426950000000006
21
root -0.7543436150742228 17.552426946076846 21.648484643435836 1.3735664918763768 6.935698671856254 0.06533678746509519
lfemur -20.372634400888153 -2.204707810821288 -25.777437033545105
ltibia 47.31525824768405
lfoot -20.91952758202208 -3.7140073011851165
ltoes -5.819111309682238
rfemur -12.870453078117169 -5.7501319297251205 20.732143928817436
rtibia 109.99416307808774
rfoot 20.479770160398644 -8.213298055050004
rtoes 23.700601132811126
lowerback 17.010822841653656 1.1485831910677482 -0.1641573797710576
upperback 0.40939048600199823 1.4892983529254904 -0.4601966583850965
thorax -8.612355897901143 0.6661855033329551 -0.4501107664127586
lowerneck -19.33628248208835 -5.691343167167587 -1.915066592987202
upperneck 11.365220780993408 -7.770854052159892 4.11586483915354
head 7.143791349777586 -3.379128535583974 0.8123845035573367
lclavicle -9.806885123386332e-16 1.2023025438303056e-15
lhumerus -50.19597517406718 -14.325192751595491 98.2994111403796
lradius 115.40569411449543
lwrist 32.34068834482234
lhand -31.94612363409991 -0.3586171035883427
lfingers nan
lthumb -5.24297884722015 29.3683294091401
rclavicle -9.11797566439535e-16 1.2537264526456803e-15
rhumerus -51.68224526582138 11.486364038717403 -105.8627225867088
rradius 109.89138930502021
rwrist -11.617657948290388
rhand -18.78401580762792 33.893831941117284
rfingers nan
rthumb 7.668574019481906 4.666062436998004
22
root -0.8827266057488509 17.350126722331463 16.034646072582895 1.1882198162941435 3.5542170707434066 2.825157454558386
lfemur -14.0192779994373 -2.2163958102464325 -29.827994666683814
ltibia 46.93231968236273
lfoot -22.716926567105144 2.4508040003979605
ltoes -5.669342066306124
rfemur -20.23028036652065 -7.2695327315731735 15.325436523195679
rtibia 117.26937432699063
rfoot 18.717202095157052 -3.955681429909435
rtoes 21.635759883034407
lowerback 17.56478150223454 1.174492725585973 -3.09208975707238
upperback 0.629886215720821 1.1595015275896703 -1.495083588992899
thorax -8.466278931010336 0.5023847139191995 0.05709167357669065
lowerneck -18.87715740270128 -5.3865755332276475 -2.013522077096702
upperneck 11.724653401128652 -7.454348505488049 4.174844426356032
head 7.23881568482922 -3.227580594327488 0.8725058480736672
lclavicle -9.745339921414581e-16 1.212901431120534e-15
lhumerus -43.28657839634811 -17.08290629701584 98.11395808731213
lradius 115.85397734641741
lwrist 31.21216578155236
lhand -31.6746245507426 -1.4435812257771923
lfingers nan
lthumb -4.759460947902231 28.555217397607763
rclavicle -9.420592650093964e-16 1.2373986424097084e-15
rhumerus -53.63895526376056 10.770140059387842 -105.77606785903558
rradius 109.67545216646057
rwrist -10.231728734317025
rhand -18.987214686945038 33.14526038382043
rfingers nan
rthumb 7.497721228623521 4.426619987073748
23
root -0.9376072204397011 17.215067014903173 12.319288381778621 2.200425926421551 1.0087744457771068 2.4991716921787552
lfemur -8.31950924892671 -2.5513391928962776 -29.62831752771823
ltibia 44.08796305419904
lfoot -18.148534839510333 1.3351236291817212
ltoes -10.087332330921662
rfemur -28.413243643346043 -7.338959019614002 16.969593728307142
rtibia 120.61848376235656
rfoot 15.477651159463914 -1.04151852787885
rtoes 17.550649094581743
lowerback 17.268616865808177 1.0094854113229785 -3.0543742363822104
upperback 0.5841628256387176 0.9113899239823511 -1.4187701958633916
thorax -8.764488922321968 0.43580746731752185 0.36766936751235596
lowerneck -19.076926923746196 -5.162596442551923 -1.996429665843647
upperneck 12.454937883578095 -7.15269405609933 3.972130095987386
head 7.579298361778968 -3.0932521651236438 0.8003512162813706
lclavicle -9.93690842363879e-16 1.2010983848002062e-15
lhumerus -37.19152554608395 -18.508390653719417 97.17308618682286
lradius 116.79289288998953
lwrist 26.73425874057449
lhand -31.352495731239607 -1.5413268753783442
lfingers nan
lthumb -4.558890906727865 28.31308299701741
rclavicle -9.22060382423739e-16 1.252398506184358e-15
rhumerus -54.84463700323429 10.76462288826685 -105.40721954082046
rradius 111.72322920646184
rwrist -14.297046603041892
rhand -18.916011495878987 33.59573233149396
rfingers nan
rthumb 7.7723333418796985 5.312956610841696
